<?xml version="1.0" encoding="UTF-8"?>
<svg version="1.1" xmlns="http://www.w3.org/2000/svg" width="940" height="161">
<path d="M0 0 C1.76338234 1.63148708 3.51122104 3.27981635 5.25 4.9375 C5.86891113 5.5238623 6.48782227 6.11022461 7.12548828 6.71435547 C17.61658716 16.7144977 26.90368438 27.08669858 35.25 38.9375 C35.75337891 39.64986816 36.25675781 40.36223633 36.77539062 41.09619141 C74.25 94.62619344 74.25 94.62619344 74.25 114.9375 C-226.71 114.9375 -527.67 114.9375 -837.75 114.9375 C-837.75 114.6075 -837.75 114.2775 -837.75 113.9375 C-836.24663086 113.87804199 -836.24663086 113.87804199 -834.71289062 113.81738281 C-756.80684025 110.65721068 -684.86463876 97.30198473 -613.59518433 64.72576904 C-565.83151183 42.910432 -528.19280158 41.74634087 -477.50634766 53.70263672 C-444.82018603 61.35986569 -409.92559565 64.80934611 -376.75 57.9375 C-375.90937012 57.77121094 -375.06874023 57.60492188 -374.20263672 57.43359375 C-336.79343072 49.88324008 -303.24548587 31.1741305 -271.18994141 11.15087891 C-258.86904853 3.47783805 -246.33935602 -3.84051028 -233.75 -11.0625 C-232.41606201 -11.83086182 -232.41606201 -11.83086182 -231.05517578 -12.61474609 C-157.4383217 -54.59361273 -65.6615203 -57.64858901 0 0 Z " fill="#ACD7E5" transform="translate(865.75,45.0625)"/>
</svg>
